# xmcd CD database file
#
# Track frame offsets:
#	150
#	17428
#	31823
#	44971
#	58770
#	71606
#	86777
#	99054
#	113214
#	129265
#	142147
#	155610
#	172374
#	184080
#	195070
#	210949
#	224213
#	240317
#	251563
#	265377
#
# Disc length: 3700 seconds
#
# Revision: 2
# Processed by: cddbd v1.5.2PL0 Copyright (c) Steve Scherf et al.
# Submitted via: CDex 1.70beta2
#
DISCID=230e7214
DTITLE=Various Artist - Country Tearjerkers - CD3 - (20 Original Heartbreakers)
DYEAR=2004
DGENRE=Country Classics
TTITLE0=Kenny Rogers and Sheena Easton - We've Got Tonight
TTITLE1=Suzy Bogguss - Heartache
TTITLE2=Crystal Gayle - Talkin' In YOur Sleep
TTITLE3=Kenny Rogers - Love Me Tender
TTITLE4=Bobbie Gentry - I'll Never Fall In Love Again
TTITLE5=Highwaymen - True Love Travels On A Gravel Road
TTITLE6=Johnny Darrell - Green Green Grass Of Home
TTITLE7=Glen Campbell - Rhinestone Cowboy
TTITLE8=Billie Jo Spears - Blanket On The Ground
TTITLE9=Dr. Hook - Sharing The Night Together
TTITLE10=Kenny Rogers - I Will Always Love You
TTITLE11=Tanya Tucker - Love Me Like You Used To DO
TTITLE12=Johnny Cash - Thanks A Lot
TTITLE13=Patsy Cline - I Can't Forget
TTITLE14=Joe South - Games People Play
TTITLE15=Glen Campbell and Tennessee Ernie Ford - There Goes My Everything
TTITLE16=Billie Jo Spears - Always On My Mind
TTITLE17=Glen Campbell - Tommorrow Never Comes
TTITLE18=Jean Sheppard - It Keeps Right On A Hurtin'
TTITLE19=Roy Rogers - He'll Have To Go
EXTD=YEAR: 2004
EXTT0=
EXTT1=
EXTT2=
EXTT3=
EXTT4=
EXTT5=
EXTT6=
EXTT7=
EXTT8=
EXTT9=
EXTT10=
EXTT11=
EXTT12=
EXTT13=
EXTT14=
EXTT15=
EXTT16=
EXTT17=
EXTT18=
EXTT19=
PLAYORDER=
